<svg xmlns="http://www.w3.org/2000/svg" viewBox="0 0 24 24" width="24" height="24">
  <path fill="#4285F4" d="M22.58 10.35H12v3.92h6.03a5.15 5.15 0 0 1-2.34 3.6l.01.09 3.4 2.62.22.02c2.12-1.98 3.35-4.9 3.35-8.36 0-.61-.05-1.21-.15-1.79h-.04z"/>
  <path fill="#34A853" d="M12 22c3.1 0 5.68-1.02 7.58-2.76l-3.63-2.75A7.19 7.19 0 0 1 12 18.02c-2.87 0-5.3-1.95-6.16-4.56H5.8l-3.74 2.85-.05.16A10.46 10.46 0 0 0 12 22z"/>
  <path fill="#FBBC05" d="M5.84 13.46c-.23-.64-.36-1.31-.36-2.01s.13-1.36.36-2l-.01-.1L2.03 6.76l-.08.04A10.5 10.5 0 0 0 1.5 11.45c0 1.67.37 3.26 1.03 4.67l3.31-2.66z"/>
  <path fill="#EA4335" d="M12 5.34c1.62 0 3.07.55 4.22 1.63l3.17-3.17A10.47 10.47 0 0 0 12 1C7.7 1 3.94 3.4 2.03 6.93l3.74 2.9c.86-2.6 3.3-4.5 6.23-4.5z"/>
</svg>