<svg xmlns="http://www.w3.org/2000/svg" viewBox="0 0 24 24" width="24" height="24">
  <path fill="#D32323" d="M12.2 9.2L7.5 8.1c-.2 0-.3.1-.2.3l1.3 4.1c.1.2.3.2.4 0l2.4-3c.1-.2.1-.3-.2-.3zm-3.6 4.5l-.3 4.1c0 .2.1.3.3.2l3.3-2.4c.1-.1.1-.3-.1-.4l-2.9-1.8c-.1-.1-.3-.1-.3.3zm4.6-.5c-.1-.2-.4-.1-.5.1l-1.5 7.1c0 .2.1.3.3.3l3.5-1.3c.2-.1.2-.3.1-.4l-1.9-5.8zm4.7 2.4l-2.9 1.7c-.2.1-.2.3 0 .4l3.3 2.4c.2.1.3 0 .3-.2l-.3-4.1c0-.2-.1-.3-.4-.2zM16.3 12c0-.2-.1-.3-.3-.3L11.7 13c-.2 0-.3.2-.1.3l2.3 3c.1.1.3.1.4 0l1.3-4.1c.1 0 0-.2-.3-.2z"/>
</svg>